<svg xmlns="http://www.w3.org/2000/svg" width="216" height="216" viewBox="0 0 216 216"><style type="text/css">.st0{opacity:0.6;fill:#FFFFFF;stroke:#231F20;stroke-width:1.1677;stroke-miterlimit:10;} .st1{opacity:0.6;fill:none;stroke:#231F20;stroke-width:1.1677;stroke-miterlimit:10;} .st2{opacity:0.6;fill:#231F20;stroke:#231F20;stroke-width:1.1677;stroke-miterlimit:10;} .st3{opacity:0.6;fill:#FFFFFF;} .st4{opacity:0.6;fill:#231F20;} .st5{opacity:0.6;} .st6{fill:#231F20;}</style><circle class="st0" cx="107" cy="107.1" r="83.7"/><path class="st0" d="M47.2 129.5c-11.7-5.6-17.8-2-26-2.9s-7.7-7.7 0-9c6.1-1.1 12.8-1.5 16.9-4.1s5.7-9.5 9.2-16.7c7.2-14.4 25.3-26.9 53.3-29.3s47.8 6 64.4 21.7 10.8 21.6 26.9 29.5 21.3 3.8 9.9 6.4c-11.4 2.6-23.1-3.8-23.1-3.8-16.3 28.9-60.7 38.8-84.4 32.1s-35.4-18.4-47.1-23.9z"/><path class="st1" d="M44.7 115.7c-2.9 2.5-17.6 2.3-22.4 4.3s-3.1 5.4 8.4 3.5c7.7-1.2 15.2-.6 23.5.2s17.3 3.9 27.1 8.2c9.7 4.3 19.7 6.4 31.5 6.8s27.6-5.8 36.8-10.5c9.1-4.7 20.8-19.7 20.8-19.7s-25.9-36-69.7-28.4l-56 35.6z"/><circle class="st2" cx="107" cy="106.8" r="27.5"/><path class="st3" d="M92.6 83.5l5.5 9.7 3 5.3.3-.2c1.6-1 3.5-1.6 5.5-1.6s3.9.6 5.5 1.6l.3.2 3.2-5.4 5.8-9.6c-4.9-4.2-18.5-7-29.1 0z"/><path class="st4" d="M44.7 115.7c1.2-5.4 10.1-27.6 39.1-35.6s53.3.7 59.6 3.6c11.7 5.5 20 13.5 27 21.7s12.2 14 23.2 16.3c-24.5-4.3-22.1-15-40.3-26.2-17-10.5-28.4-12.3-47.5-11.6s-36.4 5.6-48.7 17.5c-12.5 12.3-12.4 14.3-12.4 14.3z"/><path class="st6" d="M44.7 125.9s.6.1 1.6.2 2.6.4 4.5.8c3.8.8 9.3 2.3 15.4 5.3 3 1.5 6.2 3.2 9.7 4.9 3.4 1.7 7.1 3.2 11.1 4.4 4 1.2 8.1 2.2 12.5 2.9 4.3.7 8.7 1.1 13.1 1.1s8.8-.2 13.1-.9c4.3-.6 8.5-1.6 12.4-2.8 3.9-1.3 7.6-2.8 11-4.6 3.3-1.8 6.3-3.8 9-5.8 2.6-2.1 4.8-4.2 6.6-6.2 1.9-2 3.3-3.9 4.4-5.4 1.1-1.6 2-2.9 2.5-3.8.5-.9.8-1.4.8-1.4s-.2.5-.7 1.4c-.5 1-1.2 2.3-2.2 4-1.1 1.7-2.4 3.7-4.1 5.8-1.7 2.1-3.9 4.4-6.5 6.6-2.6 2.2-5.6 4.4-9 6.3-3.4 1.9-7.2 3.6-11.2 5-4 1.4-8.3 2.4-12.7 3.1-4.4.7-9 1-13.5.9-4.5-.1-9.1-.5-13.5-1.2-4.4-.8-8.7-1.8-12.7-3.1s-7.8-3-11.2-4.8c-3.4-1.8-6.5-3.7-9.5-5.2-2.9-1.6-5.7-2.9-8.2-3.8-2.5-1-4.8-1.7-6.7-2.2-1.9-.5-3.4-.9-4.4-1.1-1-.3-1.6-.4-1.6-.4z"/><path class="st5" d="M112.8 98.5l-.3-.2c-1.6-1-3.5-1.6-5.5-1.6s-3.9.6-5.5 1.6l-.3.2c-2.8 1.9-4.6 5-4.6 8.6 0 5.7 4.7 10.4 10.4 10.4s10.4-4.7 10.4-10.4c0-3.5-1.8-6.7-4.6-8.6z"/><path class="st3" d="M122.8 107.9l9.6-2.7-10-.6 8.9-4.6-9.9 1.5 7.7-6.4-9.4 3.5 6.2-7.8-8.6 5.1-4.7 2.7c2.8 1.9 4.6 5 4.6 8.6 0 5.7-4.7 10.4-10.4 10.4s-10.4-4.7-10.4-10.4c0-3.6 1.8-6.7 4.6-8.6l-4.6-2.7-8.5-5 6.2 7.8-9.4-3.5 7.7 6.4-9.9-1.5 8.9 4.6-10 .6 9.6 2.7-9.6 2.7 10 .6-8.9 4.6 9.9-1.5-7.7 6.4 9.4-3.5-6.1 7.7 8.4-5.4-4.5 9 7.1-7-2.5 9.7 5.5-8.4-.4 10 3.7-9.3 1.7 9.9 1.7-9.9 3.7 9.3-.4-10 5.5 8.4-2.5-9.7 7.1 7-4.5-9 8.4 5.4-6.2-7.8 9.4 3.5-7.7-6.4 9.9 1.5-8.9-4.6 10-.6-9.7-2.7z"/></svg>