<?xml version="1.0" encoding="utf-8"?>
<!-- Generator: Adobe Illustrator 19.1.0, SVG Export Plug-In . SVG Version: 6.00 Build 0)  -->
<svg version="1.1" id="Layer_1" xmlns="http://www.w3.org/2000/svg" xmlns:xlink="http://www.w3.org/1999/xlink" x="0px" y="0px"
	 width="288px" height="288px" viewBox="0 0 288 288" style="enable-background:new 0 0 288 288;" xml:space="preserve">
<style type="text/css">
	.st0{fill:#231F20;}
</style>
<path class="st0" d="M197.9,124.3c-13.5-8.3-24.1-12.2-36.3-13.8c8.3,6.4,13.7,16.4,13.7,27.7c0,19.2-15.6,34.9-34.9,34.9
	s-34.9-15.6-34.9-34.9c0-10.1,4.3-19.2,11.2-25.6c-14.7,3.1-27.9,9.1-38.1,19.1c-4.7,4.6-7.9,8-10.2,10.5c-3.2,4.4-4.5,7.3-4.6,7.4
	l-0.2,0.3c-2.2,1.9-8.6,2.6-15.3,3.3c-5,0.5-10.1,1.1-12.7,2.1c-2.2,0.9-2.8,1.8-2.7,2.2c0.2,0.7,3,2.3,12.8,0.8
	c4-0.6,7.9-0.9,11.8-0.9c6,0,11.8,0.6,17.6,1.1c9.3,0.9,19.7,4,33.8,10.2c11.9,5.2,24.3,7.9,38.9,8.4c13.8,0.5,32.4-6.4,45.3-13
	c9.3-4.8,21-18.5,24.5-22.8C212.5,136.1,207.6,130.2,197.9,124.3z"/>
<path class="st0" d="M227.9,136.8c-2.9-5-6.6-11.3-15.7-20c-22.1-20.9-47.3-29.4-79.4-26.7c-31.1,2.6-55.6,16-65.6,35.9
	c-1.3,2.7-2.4,5.3-3.5,7.8c-2.4,5.8-4.5,10.8-8.2,13.1c-4,2.6-9.8,3.4-16,4.3c-1.8,0.3-3.6,0.5-5.3,0.8c-4.8,0.8-6.8,3.4-6.8,5.3
	c0.1,2.3,2.7,4,6.7,4.5c3.2,0.3,6.1,0.1,9.2-0.1c6.5-0.5,13.2-1,23.2,3.8c4.7,2.2,9.6,5.4,14.7,8.6c10.7,6.9,24.1,15.4,43.8,21
	c28.6,8.1,83.3-3.2,103.8-39.5l0.4-0.6l0.6,0.3c0.1,0.1,14.4,7.8,28.1,4.6c1.4-0.3,2.5-0.5,3.5-0.7c-4.9-1.1-10.3-3.1-16-5.9
	C234.4,148,231.6,143.3,227.9,136.8z M220.8,149.6c-0.6,1.2-1.5,2.9-2.7,4.9c-1.3,2.1-2.9,4.5-5.1,7.2c-2.2,2.6-4.8,5.5-8,8.2
	c-3.2,2.8-6.9,5.4-11.1,7.8c-4.2,2.4-8.9,4.5-13.9,6.2c-5,1.7-10.3,3-15.8,3.8c-5.5,0.8-11.1,1.3-16.7,1.1
	c-5.6-0.1-11.3-0.6-16.7-1.5c-2.7-0.5-5.4-1.1-8-1.7c-2.6-0.7-5.2-1.4-7.7-2.2c-5-1.7-9.7-3.7-13.9-6c-4.3-2.2-8.1-4.6-11.8-6.5
	c-3.7-1.9-7.1-3.6-10.2-4.7c-3.1-1.2-6-2.1-8.3-2.7c-2.3-0.7-4.2-1-5.5-1.3c-1.3-0.3-1.9-0.4-1.9-0.4s0.7,0.1,2,0.3
	c1.3,0.2,3.2,0.4,5.6,1c2.4,0.5,5.3,1.2,8.5,2.3c3.3,1,6.8,2.5,10.6,4.3c3.8,1.8,7.8,4,12,6.1c4.3,2.1,8.9,4,13.8,5.5
	c2.4,0.8,5,1.4,7.6,2c1.3,0.3,2.6,0.5,3.9,0.8c1.3,0.3,2.6,0.5,4,0.7c5.3,0.9,10.8,1.3,16.3,1.4c5.5,0.1,11-0.3,16.3-1.1
	c5.3-0.8,10.5-2,15.4-3.5c4.9-1.6,9.5-3.5,13.6-5.7c4.2-2.2,7.9-4.7,11.1-7.2c3.2-2.5,6-5.2,8.2-7.6c2.3-2.4,4.1-4.8,5.5-6.8
	c1.4-2,2.4-3.6,3.1-4.7c0.7-1.1,1-1.7,1-1.7S221.3,148.4,220.8,149.6z M218.5,142.3c-3.7,4.6-15.3,18.2-24.9,23.1
	c-12.6,6.4-30.7,13.1-44.6,13.1c-0.5,0-0.9,0-1.4,0c-14.8-0.5-27.3-3.2-39.4-8.5c-13.9-6.1-24.2-9.2-33.3-10.1
	c-9.4-0.9-19.2-1.8-29-0.2c-8.3,1.3-13.7,0.7-14.4-1.8c-0.4-1.4,0.9-2.9,3.6-3.9c2.8-1.1,7.8-1.7,13.1-2.2
	c5.8-0.6,12.4-1.3,14.4-2.9c0.2-0.4,0.7-1.4,1.6-2.9c3.5-9.9,16-32.1,47.5-40.8c36-9.9,66.1,0.8,74,4.5
	c14.5,6.8,24.8,16.7,33.5,26.9c8.7,10.1,15.1,17.4,28.7,20.3C231.4,153.9,224.7,148.7,218.5,142.3z"/>
<path class="st0" d="M139,109.9c-5.2,0.2-10.3,0.7-15.2,1.4l5.7,10l3.7,6.6c0.1-0.1,0.3-0.2,0.4-0.3c2-1.2,4.3-2,6.8-2
	c2.5,0,4.9,0.7,6.8,2c0.1,0.1,0.3,0.2,0.4,0.3l4-6.7l6.6-11.1C152.4,109.6,146.1,109.6,139,109.9z"/>
<path class="st0" d="M63.2,149c-0.1,0.2-0.1,0.2-0.1,0.2C63.1,149.2,63.2,149.1,63.2,149z"/>
<path class="st0" d="M158.7,110.2c-0.1-0.1-0.2-0.1-0.3-0.2l-0.1,0.2C158.4,110.2,158.5,110.2,158.7,110.2z"/>
<path class="st0" d="M153.3,138.6c0,7.1-5.8,12.9-12.9,12.9c-7.1,0-12.9-5.8-12.9-12.9c0-4.4,2.3-8.4,5.7-10.7l-5.7-3.4l-10.6-6.2
	l7.7,9.7l-11.6-4.4l9.6,7.9l-12.3-1.8l11,5.7l-12.4,0.8l12,3.3l-12,3.3l12.4,0.8l-11,5.7l12.3-1.8l-9.6,7.9l11.6-4.4l-7.7,9.7
	l10.5-6.7l-5.5,11.1l8.9-8.7l-3.1,12l6.9-10.4l-0.5,12.4l4.6-11.6l2,12.3l2-12.3l4.6,11.6l-0.5-12.4l6.9,10.4l-3.1-12l8.9,8.7
	l-5.5-11.1l10.5,6.7l-7.7-9.7l11.6,4.4l-9.6-7.9l12.3,1.8l-11-5.7l12.4-0.8l-12-3.3l12-3.3l-12.4-0.8l11-5.7l-12.3,1.8l9.6-7.9
	l-11.6,4.4l7.7-9.7l-10.7,6.3l-5.8,3.4C151,130.2,153.3,134.2,153.3,138.6z"/>
<path class="st0" d="M147.5,85.9L144.5,0l-3.1,85.9C143.5,85.8,145.5,85.8,147.5,85.9z"/>
<path class="st0" d="M132.8,86.3L108.6,4.5L126.7,87C128.7,86.7,130.7,86.5,132.8,86.3C132.7,86.3,132.8,86.3,132.8,86.3z"/>
<path class="st0" d="M75,17.8l36.3,72.1c1.9-0.5,3.9-1,5.9-1.4L75,17.8z"/>
<path class="st0" d="M45.8,39.1l49.3,56.4c1.7-0.8,3.5-1.5,5.4-2.2L45.8,39.1z"/>
<path class="st0" d="M22.8,66.9l55.8,38.3c1.4-1.1,2.8-2.1,4.3-3.1L22.8,66.9z"/>
<path class="st0" d="M7.4,99.6l56.8,20.7c0.8-1.3,1.7-2.5,2.7-3.7L7.4,99.6z"/>
<path class="st0" d="M0.6,135.1l54,5.3c0.6-1.2,1.2-2.5,1.7-3.8L0.6,135.1z"/>
<path class="st0" d="M35.3,164.6c-1.6,0.1-3.2,0.2-4.9,0.3l-27.5,6.3l43.2-6.7C42.2,164.1,38.7,164.3,35.3,164.6z"/>
<path class="st0" d="M72.4,175.4l-58.4,30.1l63.2-27c-0.2-0.1-0.4-0.2-0.6-0.4C75.2,177.2,73.8,176.3,72.4,175.4z"/>
<path class="st0" d="M33.4,236l61.2-47.1c-1.8-0.9-3.5-1.9-5.1-2.8L33.4,236z"/>
<path class="st0" d="M59.8,260.7l50.5-64.5c-1.9-0.8-3.7-1.5-5.5-2.3L59.8,260.7z"/>
<path class="st0" d="M119.4,199.5l-27.9,78.7l33.7-76.9c-0.2-0.1-0.4-0.1-0.7-0.2C122.7,200.6,121,200,119.4,199.5z"/>
<path class="st0" d="M126.4,287.1l13.6-83.6c-2.1-0.1-4.1-0.3-6-0.6L126.4,287.1z"/>
<path class="st0" d="M162.5,287.1l-7.5-83.7c-2,0.2-4,0.3-6,0.3L162.5,287.1z"/>
<path class="st0" d="M197.5,278.2l-27.3-76.8c-2,0.4-3.9,0.8-5.9,1L197.5,278.2z"/>
<path class="st0" d="M229.2,260.7L186.3,197c-1.9,0.6-3.7,1.2-5.6,1.8L229.2,260.7z"/>
<path class="st0" d="M255.5,236l-52.1-46.3c-1.6,0.9-3.3,1.7-5,2.5L255.5,236z"/>
<path class="st0" d="M274.9,205.5l-53.8-27.7c-1.2,1.1-2.5,2.1-3.8,3.1L274.9,205.5z"/>
<path class="st0" d="M286.1,171.1l-49.5-11.3c-0.7,1.1-1.4,2.2-2.2,3.3L286.1,171.1z"/>
<path class="st0" d="M238.1,140.1l50.3-5l-52.4,1.4c0.2,0.3,0.3,0.5,0.5,0.8C237,138.3,237.5,139.2,238.1,140.1z"/>
<path class="st0" d="M224.2,120.5l57.3-20.9L220.8,117C222,118.2,223.2,119.4,224.2,120.5z"/>
<path class="st0" d="M266.2,66.9l-62.1,36.4c1.5,1,3,2.1,4.4,3.2L266.2,66.9z"/>
<path class="st0" d="M243.1,39.1l-55.6,55.1c1.8,0.8,3.5,1.6,5.3,2.5L243.1,39.1z"/>
<path class="st0" d="M213.9,17.8l-42.4,71c2,0.5,3.9,1,5.8,1.6L213.9,17.8z"/>
<path class="st0" d="M180.3,4.5l-24.2,81.8c2.1,0.2,4.1,0.4,6.1,0.7L180.3,4.5z"/>
</svg>
