<?xml version="1.0" encoding="utf-8"?>
<!-- Generator: Adobe Illustrator 19.1.0, SVG Export Plug-In . SVG Version: 6.00 Build 0)  -->
<svg version="1.1" id="Layer_1" xmlns="http://www.w3.org/2000/svg" xmlns:xlink="http://www.w3.org/1999/xlink" x="0px" y="0px"
	 width="288px" height="288px" viewBox="324 0 288 288" style="enable-background:new 324 0 288 288;" xml:space="preserve">
<g>
	<path d="M382.2,0.1c1.1,0,2.2,0,3.4,0c1.6,0.4,2,1.5,2,3c0,0.4,0,0.9,0,1.3c0,8.9-0.1,17.9-0.1,26.9c0,9.8,0,19.7-0.1,29.5
		c0,2.7-0.1,5.4,0.1,8.1c0.1,1.6,0.7,2.4,2.3,2.4c2.2,0,4.5-0.1,6.7-0.3c1.3-0.1,2.1-0.9,2.3-2.2c0.1-0.8,0.3-1.7,0.3-2.5
		c0.1-3.1,0.1-6.3,0.1-9.4c0-17.9,0-35.7,0-53.6c0-1.9,0-2.8,2.2-3.4c43.4,0,86.7,0,130,0c0.3,0,0.6,0.1,0.9,0.1
		c7.7,0,15.5,0.1,23.2,0.1c3.9,0,7.8,0.4,11.6,1.3c12,2.9,21.9,9.2,30,18.5c6.4,7.5,10.7,16,12.4,25.7c0.9,5.2,1,10.5,1.1,15.7
		c0.1,10.2,0,20.5-0.1,30.6c0,1.6-0.4,2-2,2c-0.3,0-0.7,0-1,0c-28.5,0-56.9,0-85.4,0.1c-1.9,0-3.4-0.6-4.7-1.8
		c-3.8-3.6-7.8-6.7-12.3-9.4c-15.8-9.5-32.9-12.8-51-9.5c-14.2,2.6-26.5,9.1-37,18.9c-1.4,1.3-2.9,1.9-4.8,1.9
		c-28.6,0-57.2,0-85.9,0c-1.7,0-2.2-0.4-2.2-2.2c0-2.6,0.1-5.2,0.1-7.7c-0.1-10.8-0.5-21.6,0.3-32.5c0.5-6.6,2-12.9,4.7-18.9
		c4.2-9.1,10.7-16.2,18.5-22.2c0.1-0.1,0.3-0.1,0.4-0.2c0,0.1,0,0.2,0,0.3c0,17.1,0,34.2-0.1,51.2c0,2.4-0.1,4.7,0.1,7.1
		c0.1,1.6,0.8,2.3,2.3,2.3c2.2,0,4.3-0.1,6.4-0.3c1.4-0.1,2.1-1,2.3-2.4c0.1-0.9,0.2-1.8,0.2-2.7c0-19.3,0-38.7,0-57.9
		c0-0.4,0-0.8-0.1-1.3c-0.3-2-0.1-2.2,1.6-3s3.5-1.5,5.4-1.7c1.4-0.1,1.7,0.3,1.5,1.6c-0.1,0.5-0.1,1-0.1,1.5c0,17.5,0,35,0,52.4
		c0,3.8,0,7.7,0,11.4c0,1.6,0.6,2.4,2.2,2.4c2.1,0.1,4.1,0,6.2-0.1c1.9-0.1,2.7-1,3-2.9c0.1-1,0.2-2.2,0.2-3.3
		c0.1-10.3,0.1-20.5,0.1-30.7s-0.1-20.3-0.1-30.5C379.5,1.2,379.7,0.8,382.2,0.1z M536,48.6L536,48.6c0,5.3-0.1,10.7,0,16
		c0.1,5.2,3.8,8.7,9,8.7c10.1,0,20.2,0,30.2,0c5.4,0,9.1-3.7,9.1-9.1c0.1-10.3,0.1-20.7,0-31c0-5.4-3.6-9.1-9-9.1
		c-10.2-0.1-20.3-0.1-30.5,0c-5.3,0.1-8.8,3.4-8.9,8.7C535.8,38,536,43.3,536,48.6z"/>
	<path d="M407.5,102.9c-11.1,16.5-15.8,34.4-12.6,54.1c2.9,17.2,10.6,31.7,23.8,43.2c26.5,23,64.4,24.5,92.2,3.6
		c15.8-11.9,25.3-27.7,28.3-47.2c3.1-19.5-1.6-37.3-12.7-53.7c0.4,0,0.8,0,1,0c23.7,0,47.5,0,71.3,0c2.7,0,5.2,0,7.9,0
		c0.5,0,1,0,1.5,0.1c1.2,0.1,1.9,0.8,2,2c0.1,1.6,0.1,3.3,0.1,5c0,11.9-0.1,23.8-0.1,35.7c0,29,0,58-0.1,87.1
		c-0.1,14.2-5.2,26.6-14.8,37.1c-8.4,9.2-18.9,15.1-31.2,17.3c-3.1,0.6-6.4,0.9-9.5,0.9c-58.2,0.1-116.4,0.1-174.6,0
		c-26.3-0.1-48.1-17.5-54.4-42.6c-1.3-5-1.7-10.1-1.7-15.1c0-27.1,0-54.1,0-81.2c0-13.8-0.1-27.7-0.1-41.5c0-0.6,0.1-1.3,0.1-1.8
		c0.2-1.7,0.9-2.5,2.7-2.6c1.8-0.1,3.7-0.1,5.5-0.1c24.6,0,49.3,0.1,74,0.1C406.7,102.9,407,102.9,407.5,102.9z"/>
	<path d="M467.5,88.9c31.1,0,56.4,25.3,56.3,56.6c-0.1,31.3-25.2,56.3-56.7,56.3c-31.2,0-56.4-25.3-56.4-56.5
		C410.7,114.2,436.2,88.9,467.5,88.9z M509.1,146.1c0.1-23.1-17.9-42.6-42.2-42.2c-23,0.3-41.7,19.5-41,42.3
		c0.7,23,19.3,41.5,42.7,40.9C490.8,186.4,509.3,167.8,509.1,146.1z"/>
</g>
</svg>
