<svg xmlns="http://www.w3.org/2000/svg" width="144" height="144" viewBox="0 0 144 144"><path d="M133.3 0h-122.7c-5.8 0-10.6 4.6-10.6 10.4v123.2c0 5.7 4.8 10.4 10.6 10.4h122.7c5.9 0 10.7-4.7 10.7-10.4v-123.2c0-5.8-4.8-10.4-10.7-10.4zm-90.6 122.7h-21.4v-68.7h21.4v68.7zm-10.7-78.1c-6.8 0-12.4-5.5-12.4-12.4 0-6.8 5.5-12.4 12.4-12.4 6.8 0 12.4 5.5 12.4 12.4 0 6.8-5.5 12.4-12.4 12.4zm90.7 78.1h-21.3v-33.4c0-8-.1-18.2-11.1-18.2-11.1 0-12.8 8.7-12.8 17.6v34h-21.4v-68.7h20.5v9.4h.3c2.9-5.4 9.8-11.1 20.2-11.1 21.6 0 25.6 14.2 25.6 32.7v37.7z"/></svg>